<svg preserveAspectRatio="none" width="100%" height="100%" overflow="visible" style="display: block;" viewBox="0 0 20 20" fill="none" xmlns="http://www.w3.org/2000/svg">
<g id="IconLinkedin">
<path id="Vector" d="M13.6276 5.73225H6.37241C6.20263 5.73225 6.0398 5.79969 5.91975 5.91975C5.79969 6.0398 5.73225 6.20263 5.73225 6.37241V13.6276C5.73225 13.7974 5.79969 13.9602 5.91975 14.0803C6.0398 14.2003 6.20263 14.2678 6.37241 14.2678H13.6276C13.7974 14.2678 13.9602 14.2003 14.0803 14.0803C14.2003 13.9602 14.2678 13.7974 14.2678 13.6276V6.37241C14.2678 6.20263 14.2003 6.0398 14.0803 5.91975C13.9602 5.79969 13.7974 5.73225 13.6276 5.73225ZM8.2929 12.9874H7.01257V9.14645H8.2929V12.9874ZM7.65274 8.39959C7.506 8.3954 7.36376 8.34806 7.24378 8.26348C7.1238 8.17891 7.0314 8.06086 6.97813 7.92407C6.92486 7.78728 6.91308 7.63783 6.94426 7.49439C6.97544 7.35095 7.04821 7.21987 7.15346 7.11755C7.25871 7.01522 7.39178 6.94618 7.53604 6.91905C7.68031 6.89192 7.82936 6.9079 7.96459 6.96501C8.09983 7.0221 8.21523 7.11779 8.29639 7.24011C8.37756 7.36242 8.42087 7.50594 8.42093 7.65274C8.41756 7.85347 8.33486 8.04471 8.19092 8.18465C8.04698 8.3246 7.85349 8.40188 7.65274 8.39959ZM12.9874 12.9874H11.7071V10.9645C11.7071 10.3585 11.451 10.1408 11.1182 10.1408C11.0206 10.1473 10.9252 10.173 10.8376 10.2165C10.7499 10.26 10.6717 10.3203 10.6075 10.3941C10.5433 10.4678 10.4942 10.5536 10.4632 10.6463C10.4322 10.7391 10.4198 10.837 10.4268 10.9346C10.4246 10.9545 10.4246 10.9745 10.4268 10.9944V12.9874H9.14645V9.14645H10.3841V9.70126C10.509 9.51134 10.6805 9.35666 10.8822 9.25205C11.084 9.14745 11.3093 9.09637 11.5364 9.10377C12.1979 9.10377 12.9704 9.4708 12.9704 10.6658L12.9874 12.9874Z" fill="var(--fill-0, black)"/>
</g>
</svg>
