<svg preserveAspectRatio="none" width="100%" height="100%" overflow="visible" style="display: block;" viewBox="0 0 45 14" fill="none" xmlns="http://www.w3.org/2000/svg">
<g id="svg-963770382_1797" clip-path="url(#clip0_0_89)">
<path id="Vector" fill-rule="evenodd" clip-rule="evenodd" d="M1.58639 0H7.66254V1.32377H1.58639V0ZM19.1962 10.4451C19.3601 10.1016 19.445 9.7314 19.4457 9.35706V3.98037H20.9024V9.35706C20.9048 10.1701 20.635 10.9646 20.129 11.6349C19.6229 12.3054 18.9044 12.8201 18.0689 13.1108C16.9255 13.5093 15.6603 13.5093 14.5169 13.1108C13.9733 12.9172 13.4755 12.631 13.0503 12.2675C12.616 11.8928 12.2707 11.4413 12.0357 10.9407C11.8006 10.4402 11.6807 9.90127 11.6834 9.35706V3.98037H13.1401V9.35706C13.1382 9.72176 13.2187 10.083 13.3765 10.4183C13.5345 10.7536 13.7663 11.0559 14.058 11.3064C14.6718 11.8148 15.4724 12.0967 16.3028 12.0967C17.1334 12.0967 17.9339 11.8148 18.5477 11.3064C18.816 11.0548 19.0353 10.7635 19.1962 10.4451ZM26.0108 13.2467V10.0552H29.7622L31.5481 13.2467H33.1844L31.0692 9.45677C31.2012 9.36989 31.3248 9.27282 31.4384 9.16666C31.7443 8.89171 31.9882 8.56528 32.1567 8.20556C32.3367 7.83106 32.4285 7.42645 32.4262 7.01778C32.4265 6.6093 32.3348 6.20507 32.1567 5.83001C31.817 5.09812 31.1762 4.51575 30.3708 4.20704C29.9581 4.04521 29.5133 3.96191 29.0638 3.96223H24.554V13.2377H26.0108V13.2467ZM26.0108 5.30413H29.0737C29.5757 5.30652 30.0563 5.48878 30.4113 5.81134C30.7662 6.13389 30.9668 6.57069 30.9694 7.02685C30.9688 7.25146 30.9192 7.47373 30.8232 7.68075C30.7274 7.88776 30.5871 8.07536 30.4107 8.23278C30.2337 8.39277 30.0235 8.51923 29.7923 8.60487C29.5611 8.69042 29.3134 8.73343 29.0638 8.73141H26.0007V5.30413H26.0108ZM36.7962 13.2467L39.8592 5.97508L42.9222 13.2467H44.4787L40.5775 3.9713H39.1309L35.2297 13.2467H36.7962ZM3.90111 3.9713L0 13.2467H1.55646L4.61948 5.97508L7.6825 13.2467H9.23892L5.33784 3.9713H3.90111Z" fill="var(--fill-0, black)"/>
</g>
<defs>
<clipPath id="clip0_0_89">
<rect width="45" height="14" fill="white"/>
</clipPath>
</defs>
</svg>
