<svg preserveAspectRatio="none" width="100%" height="100%" overflow="visible" style="display: block;" viewBox="0 0 21.8097 18.0154" fill="none" xmlns="http://www.w3.org/2000/svg">
<path id="Vector" d="M18.5707 2.59126C22.8894 6.09562 22.8894 11.9198 18.5707 15.4241C16.4483 17.1516 13.6843 18.0154 10.8956 18.0154C8.13161 18.0154 5.3676 17.1516 3.22056 15.4241C-1.07352 11.9198 -1.07352 6.09562 3.22056 2.59126C5.3676 0.863753 8.13161 0 10.8956 0C13.6843 0 16.4483 0.863753 18.5707 2.59126ZM16.3249 3.35629C14.8195 1.80154 12.8699 1.0365 10.8956 1.0365C8.946 1.0365 6.97171 1.80154 5.49099 3.35629C2.50488 6.4658 2.50488 11.5496 5.49099 14.6344C6.97171 16.2139 8.946 16.9789 10.8956 16.9789C12.8699 16.9789 14.8195 16.2139 16.3249 14.6344C19.311 11.5496 19.311 6.4658 16.3249 3.35629Z" fill="var(--fill-0, #0A0A0A)"/>
</svg>
