<svg width="118" height="20" viewBox="0 0 118 20" fill="none" xmlns="http://www.w3.org/2000/svg">
<path d="M99.0742 0.684999V0.46582H104.636L109.622 7.78089L115.266 0.46582H116.691L110.28 8.73979L117.677 19.5343H113.376L108.006 11.6987L101.924 19.5343H100.526L107.348 10.7398L102.855 4.16445C101.65 2.57541 99.8961 0.684999 99.0742 0.684999Z" fill="#F6F7F3"/>
<path d="M90.293 19.5344H81.745V6.2193C81.745 3.42478 81.0053 0.876832 80.293 0.685052V0.438477H90.293C96.2656 0.438477 99.4985 4.57546 99.4985 9.97272C99.4985 15.3974 96.2656 19.5344 90.293 19.5344ZM95.9368 9.97272C95.9368 5.06861 93.745 1.56176 90.293 1.56176H85.3067V18.4111H90.293C93.745 18.4111 95.9368 14.9042 95.9368 9.97272Z" fill="#F6F7F3"/>
<path d="M60.332 0.684999V0.46582H65.7567L77.5375 14.0823V0.46582H78.6608V19.5343H77.5375L62.9074 2.60281V19.5343H61.7841V6.21924C61.7841 3.42473 61.0718 0.876779 60.332 0.684999Z" fill="#F6F7F3"/>
<path d="M56.4289 2.87671C61.2235 6.76712 61.2235 13.2329 56.4289 17.1233C54.0728 19.0411 51.0043 20 47.9084 20C44.8399 20 41.7714 19.0411 39.3878 17.1233C34.6207 13.2329 34.6207 6.76712 39.3878 2.87671C41.7714 0.958905 44.8399 0 47.9084 0C51.0043 0 54.0728 0.958905 56.4289 2.87671ZM53.9358 3.72603C52.2646 2 50.1002 1.15069 47.9084 1.15069C45.744 1.15069 43.5522 2 41.9084 3.72603C38.5933 7.17808 38.5933 12.8219 41.9084 16.2466C43.5522 18 45.744 18.8493 47.9084 18.8493C50.1002 18.8493 52.2646 18 53.9358 16.2466C57.2509 12.8219 57.2509 7.17808 53.9358 3.72603Z" fill="#F6F7F3"/>
<path d="M18.7305 0.684999V0.46582H24.4017L30.4017 9.53431L36.2373 0.46582H37.5798L30.9496 10.7398V19.5343H27.388V11.4247L23.3332 5.28774C21.6346 2.73979 19.799 0.684999 18.7305 0.684999Z" fill="#F6F7F3"/>
<path d="M0 0.438477H10.0274C16.7671 0.438477 17.8904 2.41108 17.8904 4.71245C17.8904 6.27409 17.3973 7.67135 15.0137 8.41108C18.0274 9.26039 19.1507 11.0412 19.1507 13.6988C19.1507 17.4796 16.8767 19.5344 10.0274 19.5344H1.47945V6.2193C1.47945 3.42478 0.739726 0.876832 0 0.685052V0.438477ZM14.3288 4.71245C14.3288 3.2056 14.0548 1.56176 10.0274 1.56176H5.0411V9.06861C6.21918 8.13711 8.21918 7.86313 10.0274 7.86313C14.0548 7.86313 14.3288 6.2193 14.3288 4.71245ZM15.589 13.6988C15.589 10.4659 14.0548 8.98642 10.0274 8.98642C7.72603 8.98642 5.0411 9.34259 5.0411 11.37V18.4111H10.0274C14.0548 18.4111 15.589 16.9316 15.589 13.6988Z" fill="#F6F7F3"/>
</svg>
