<svg preserveAspectRatio="none" width="100%" height="100%" overflow="visible" style="display: block;" viewBox="0 0 17.2504 17.201" fill="none" xmlns="http://www.w3.org/2000/svg">
<path id="Vector" d="M0 0H9.03238C15.1033 0 16.1151 1.77686 16.1151 3.84987C16.1151 5.25655 15.6709 6.51516 13.5239 7.18148C16.2385 7.94652 17.2504 9.55063 17.2504 11.9445C17.2504 15.3501 15.202 17.201 9.03238 17.201H1.33265V5.20719C1.33265 2.68997 0.666323 0.394857 0 0.222108V0ZM12.9069 3.84987C12.9069 2.49254 12.6601 1.01182 9.03238 1.01182H4.54087V7.77377C5.60205 6.9347 7.40359 6.68791 9.03238 6.68791C12.6601 6.68791 12.9069 5.20719 12.9069 3.84987ZM14.0421 11.9445C14.0421 9.03238 12.6601 7.69973 9.03238 7.69973C6.95937 7.69973 4.54087 8.02056 4.54087 9.84677V16.1892H9.03238C12.6601 16.1892 14.0421 14.8565 14.0421 11.9445Z" fill="var(--fill-0, #0A0A0A)"/>
</svg>
