<svg preserveAspectRatio="none" width="100%" height="100%" overflow="visible" style="display: block;" viewBox="0 0 47 14" fill="none" xmlns="http://www.w3.org/2000/svg">
<g id="svg2103006365_1781" clip-path="url(#clip0_0_47)">
<path id="Vector" d="M0.307227 13.2228H1.76667V5.05145H3.43461C3.65799 5.05145 3.8367 5.19679 3.92606 5.42287L6.42796 11.9471C6.72581 12.7383 7.39596 13.2228 8.18525 13.2228H11.3275V3.53344H9.86807V11.7048H8.21504C7.99165 11.7048 7.81294 11.5595 7.72359 11.3334L5.22168 4.80922C4.92384 4.01791 4.25368 3.53344 3.4644 3.53344H0.307227V13.2228ZM17.8206 13.4489C19.7268 13.4489 21.1863 12.8676 22.2436 11.8017L21.2905 10.6874C20.3821 11.6241 19.1311 11.9309 17.8206 11.9309C15.974 11.9309 14.6932 10.7359 14.5145 8.84642H22.7053V8.34584C22.7053 5.29368 20.6352 3.27506 17.8206 3.27506C15.0209 3.27506 12.9657 5.30983 12.9657 8.34584C12.9657 11.398 15.0059 13.4489 17.8206 13.4489ZM14.574 7.45764C14.8868 5.81045 16.108 4.79307 17.8206 4.79307C19.5183 4.79307 20.7842 5.77815 21.1118 7.45764H14.574ZM27.9026 13.2228H30.1812V11.7048H27.5751C27.0091 11.7048 26.6815 11.3495 26.6815 10.7359V5.08375H30.3301V3.56575H26.6815V1.1434H25.2518V3.56575H23.4499V5.08375H25.222V10.316C25.222 12.0116 26.339 13.2228 27.9026 13.2228ZM34.1724 13.2228H35.6318V5.8266C35.6318 4.50238 34.768 3.56575 33.5468 3.56575H31.3726V5.08375H33.5766C33.9489 5.08375 34.1724 5.32599 34.1724 5.72971V13.2228ZM34.0681 2.08004H35.8253V0.0614166H34.0681V2.08004ZM42.3184 13.4489C44.0757 13.4489 45.282 12.8837 46.2947 11.8017L45.3862 10.752C44.6863 11.5918 43.763 11.9309 42.3184 11.9309C40.293 11.9309 38.8336 10.5906 38.8336 8.39429C38.8336 6.18187 40.2782 4.79307 42.3184 4.79307C43.7034 4.79307 44.5076 5.14834 45.4458 6.21418L46.384 5.11605C45.4607 3.98562 44.0906 3.27506 42.3184 3.27506C39.474 3.27506 37.3146 5.30983 37.3146 8.39429C37.3146 11.4626 39.4889 13.4489 42.3184 13.4489Z" fill="var(--fill-0, black)"/>
</g>
<defs>
<clipPath id="clip0_0_47">
<rect width="47" height="14" fill="white"/>
</clipPath>
</defs>
</svg>
