<svg preserveAspectRatio="none" width="100%" height="100%" overflow="visible" style="display: block;" viewBox="0 0 49.989 14.0469" fill="none" xmlns="http://www.w3.org/2000/svg">
<g id="svg-117048895_2655" clip-path="url(#clip0_0_24)">
<path id="Vector" d="M22.499 2.58884C22.499 4.01862 21.3572 5.17767 19.9486 5.17767C18.5401 5.17767 17.3983 4.01862 17.3983 2.58884C17.3983 1.15906 18.5401 0 19.9486 0C21.3572 0 22.499 1.15906 22.499 2.58884Z" fill="var(--fill-0, black)"/>
<path id="Vector_2" d="M5.31614 5.7683H0.494384V13.8422H2.7658V7.49958H4.75029C5.2205 7.49958 5.60306 7.88788 5.60306 8.36524V13.8503H7.87446V8.36524C7.88243 6.92518 6.73477 5.7683 5.31614 5.7683Z" fill="var(--fill-0, black)"/>
<path id="Vector_3" d="M30.3176 12.1027H28.8273C28.389 12.0703 28.0383 11.6982 28.0383 11.2371V7.49134H30.3096V5.76006H28.0383V2.87189H25.7668V5.75197H24.7706L23.4954 7.48325H25.7668V11.2452C25.7668 12.6771 26.9066 13.834 28.3172 13.834H30.3017V12.8713L30.3176 12.1027Z" fill="var(--fill-0, black)"/>
<path id="Vector_4" d="M24.2128 5.76825H21.6544L19.9568 8.07392L18.2514 5.76825H15.6851L18.6738 9.79717L15.6851 13.8422H18.2514L19.9568 11.5284L21.6544 13.8422H24.2128L21.232 9.79717L24.2128 5.76825Z" fill="var(--fill-0, black)"/>
<path id="Vector_5" d="M39.968 5.76825L37.9835 10.9055L35.999 5.76825H33.7197L36.8518 13.8422H39.1153L42.2394 5.76825H39.968Z" fill="var(--fill-0, black)"/>
<path id="Vector_6" d="M30.884 5.76773H33.1559V13.8417H30.884V5.76773Z" fill="var(--fill-0, black)"/>
<path id="Vector_7" d="M30.884 2.87989H33.1559V5.18557H30.884V2.87989Z" fill="var(--fill-0, black)"/>
<path id="Vector_8" fill-rule="evenodd" clip-rule="evenodd" d="M12.4173 12.103C11.6999 12.103 11.0942 11.5043 10.8392 10.6629H16.3065C16.3623 10.3878 16.4022 10.0966 16.4022 9.79724C16.4022 7.56439 14.6169 5.76029 12.4251 5.76029C10.2334 5.76029 8.44821 7.57249 8.44821 9.79724C8.44821 12.022 10.2334 13.8342 12.4251 13.8342H15.119L16.3942 12.103H12.4173ZM12.4176 7.49962C13.1349 7.49962 13.7406 8.09827 13.9957 8.93968H10.8316C11.0946 8.09023 11.7083 7.49962 12.4176 7.49962Z" fill="var(--fill-0, black)"/>
<path id="Vector_9" fill-rule="evenodd" clip-rule="evenodd" d="M46.9503 5.7683H42.8059L42.1366 7.49958H46.3765C46.8467 7.49958 47.2293 7.88788 47.2293 8.36524V8.9396H43.8261V8.94772C42.5589 9.02865 41.5547 10.0884 41.5547 11.3909C41.5547 12.6935 42.5589 13.7614 43.8261 13.8342V13.8422H49.5087V8.35712C49.5006 6.92518 48.361 5.7683 46.9503 5.7683ZM44.3917 10.6792C44.4316 10.6711 44.4794 10.6711 44.5113 10.663H47.229V12.103H44.5113C44.4714 12.103 44.4236 12.095 44.3917 12.0869C44.0729 12.0222 43.8259 11.7228 43.8259 11.3831C43.8419 11.0433 44.065 10.752 44.3917 10.6792Z" fill="var(--fill-0, black)"/>
</g>
<defs>
<clipPath id="clip0_0_24">
<rect width="49.989" height="14.0469" fill="white"/>
</clipPath>
</defs>
</svg>
