<svg preserveAspectRatio="none" width="100%" height="100%" overflow="visible" style="display: block;" viewBox="0 0 67.6205 15.6801" fill="none" xmlns="http://www.w3.org/2000/svg">
<g id="Layer-1">
<path id="Vector" d="M13.0506 7.70667C13.0506 8.11331 13.1218 8.49821 13.2641 8.8615C13.4065 9.22493 13.6048 9.54367 13.859 9.8182C14.1132 10.0926 14.4119 10.3098 14.755 10.4699C15.0982 10.6299 15.4731 10.71 15.8799 10.71C16.2918 10.71 16.6769 10.6299 17.0353 10.4699C17.3938 10.3098 17.7051 10.0926 17.9695 9.8182C18.2338 9.54367 18.4423 9.22493 18.5948 8.8615C18.7474 8.49821 18.8236 8.11332 18.8236 7.70667C18.8236 7.30529 18.7474 6.92278 18.5948 6.55936C18.4423 6.19614 18.2338 5.87719 17.9695 5.60279C17.7051 5.32827 17.3938 5.10993 17.0353 4.94715C16.6769 4.78466 16.2918 4.70328 15.8799 4.70328C15.4731 4.70328 15.0982 4.78466 14.755 4.94715C14.4119 5.10991 14.1132 5.32825 13.859 5.60279C13.6047 5.87719 13.4065 6.19613 13.2641 6.55936C13.1218 6.92278 13.0506 7.30529 13.0506 7.70667ZM20.9819 12.105C20.9819 12.1965 20.9628 12.2715 20.9247 12.3299C20.8865 12.3883 20.837 12.4341 20.7759 12.4671C20.715 12.5001 20.645 12.5231 20.5663 12.5356C20.4874 12.5484 20.4048 12.5547 20.3184 12.5547H19.3651C19.2023 12.5547 19.0892 12.5116 19.0258 12.4252C18.9621 12.3388 18.9151 12.2296 18.8846 12.0973L18.839 11.4495C18.6609 11.6274 18.4639 11.7938 18.2479 11.9487C18.0318 12.1038 17.7991 12.2384 17.5501 12.3528C17.3009 12.4671 17.0365 12.5559 16.757 12.6195C16.4773 12.683 16.1901 12.7148 15.8952 12.7148C15.4377 12.7148 14.9965 12.655 14.5721 12.5356C14.1475 12.4163 13.7497 12.2486 13.3786 12.0326C13.0074 11.8166 12.6705 11.5561 12.3681 11.2513C12.0656 10.9463 11.8062 10.6084 11.5902 10.2374C11.374 9.86653 11.2064 9.46754 11.0869 9.04062C10.9674 8.61371 10.9077 8.16909 10.9077 7.70667C10.9077 7.24425 10.9674 6.79951 11.0869 6.3726C11.2064 5.94581 11.374 5.54688 11.5902 5.17588C11.8062 4.80494 12.0656 4.46824 12.3681 4.16586C12.6705 3.8636 13.0074 3.60444 13.3786 3.38828C13.7497 3.17234 14.1475 3.00472 14.5721 2.88524C14.9965 2.76596 15.4377 2.70605 15.8952 2.70605C16.2205 2.70605 16.5307 2.74043 16.8256 2.80898C17.1204 2.87759 17.3963 2.97426 17.653 3.09866C17.9097 3.22319 18.1475 3.37306 18.366 3.54846C18.5846 3.72372 18.783 3.9156 18.961 4.12391L19.0677 3.30831C19.0931 3.21675 19.1172 3.14189 19.1402 3.08344C19.163 3.02507 19.191 2.97799 19.224 2.94241C19.257 2.90691 19.299 2.88278 19.3499 2.87001C19.4007 2.85731 19.4643 2.85087 19.5406 2.85087H20.3032C20.3844 2.85087 20.4659 2.85851 20.5472 2.87388C20.6284 2.8891 20.7023 2.91324 20.7683 2.94629C20.8344 2.97934 20.8865 3.02507 20.9247 3.08345C20.9628 3.14189 20.9819 3.2143 20.9819 3.30066V12.105L20.9819 12.105Z" fill="var(--fill-0, #141414)"/>
<path id="Vector_2" d="M26.5877 15.3523C26.5419 15.4639 26.4834 15.5467 26.4122 15.6C26.341 15.6534 26.247 15.6801 26.1301 15.6801H24.6963C24.5539 15.6801 24.4561 15.6559 24.4027 15.6077C24.3494 15.5594 24.3226 15.4996 24.3226 15.4284C24.3226 15.3929 24.3289 15.342 24.3417 15.2761C24.3544 15.21 24.3658 15.1719 24.376 15.1617L25.7182 11.7391L22.3169 3.45309C22.3169 3.44299 22.3144 3.43534 22.3093 3.43022V3.36167C22.2838 3.30576 22.2712 3.24226 22.2712 3.17105C22.2712 3.08469 22.3017 3.01605 22.3628 2.9652C22.4238 2.91447 22.5177 2.88907 22.6449 2.88907H24.0253C24.2437 2.88907 24.3938 2.99579 24.4752 3.20913L24.6125 3.56737C24.7141 3.85208 24.8285 4.17095 24.9557 4.52406C25.0826 4.87732 25.215 5.24194 25.3522 5.61799C25.4894 5.99418 25.6279 6.37143 25.7678 6.74995C25.9076 7.1286 26.0397 7.48438 26.1643 7.81714C26.2889 8.15006 26.402 8.44991 26.5037 8.71666C26.6054 8.98342 26.6867 9.19304 26.7478 9.34556L29.0051 3.20913C29.0508 3.09743 29.1093 3.01479 29.1806 2.96146C29.2516 2.90801 29.3457 2.88141 29.4627 2.88141H30.8964C31.0387 2.88141 31.1367 2.90555 31.19 2.95382C31.2434 3.00222 31.27 3.06187 31.27 3.13294C31.27 3.16857 31.2636 3.21944 31.2511 3.28539C31.2383 3.35149 31.2268 3.38964 31.2167 3.39976L26.5877 15.3523L26.5877 15.3523Z" fill="var(--fill-0, #141414)"/>
<path id="Vector_3" d="M33.5125 7.70667C33.5125 8.11331 33.5837 8.49821 33.726 8.8615C33.8684 9.22493 34.0667 9.54367 34.3209 9.8182C34.5751 10.0926 34.8738 10.3098 35.2169 10.4699C35.5601 10.6299 35.935 10.71 36.3418 10.71C36.7537 10.71 37.1388 10.6299 37.4972 10.4699C37.8557 10.3098 38.167 10.0926 38.4314 9.8182C38.6957 9.54367 38.9042 9.22493 39.0567 8.8615C39.2093 8.49821 39.2855 8.11332 39.2855 7.70667C39.2855 7.30529 39.2093 6.92278 39.0567 6.55936C38.9042 6.19614 38.6957 5.87719 38.4314 5.60279C38.167 5.32827 37.8557 5.10993 37.4972 4.94715C37.1388 4.78466 36.7537 4.70328 36.3418 4.70328C35.935 4.70328 35.5601 4.78466 35.2169 4.94715C34.8738 5.10991 34.5751 5.32825 34.3209 5.60279C34.0667 5.87719 33.8684 6.19613 33.726 6.55936C33.5837 6.92278 33.5125 7.30529 33.5125 7.70667ZM41.4438 12.105C41.4438 12.1965 41.4247 12.2715 41.3866 12.3299C41.3484 12.3883 41.2989 12.4341 41.2378 12.4671C41.1769 12.5001 41.1069 12.5231 41.0282 12.5356C40.9493 12.5484 40.8667 12.5547 40.7803 12.5547H39.827C39.6642 12.5547 39.5511 12.5116 39.4877 12.4252C39.424 12.3388 39.377 12.2296 39.3466 12.0973L39.3009 11.4495C39.1228 11.6274 38.9258 11.7938 38.7098 11.9487C38.4937 12.1038 38.261 12.2384 38.012 12.3528C37.7628 12.4671 37.4984 12.5559 37.2189 12.6195C36.9392 12.683 36.6519 12.7148 36.3571 12.7148C35.8996 12.7148 35.4584 12.655 35.034 12.5356C34.6094 12.4163 34.2115 12.2486 33.8404 12.0326C33.4693 11.8166 33.1324 11.5561 32.83 11.2513C32.5275 10.9463 32.2681 10.6084 32.0521 10.2374C31.8359 9.86653 31.6682 9.46754 31.5488 9.04062C31.4292 8.61371 31.3696 8.16909 31.3696 7.70667C31.3696 7.24425 31.4292 6.79951 31.5488 6.3726C31.6682 5.94581 31.8359 5.54688 32.0521 5.17588C32.2681 4.80494 32.5275 4.46824 32.83 4.16586C33.1324 3.8636 33.4693 3.60444 33.8404 3.38828C34.2115 3.17234 34.6094 3.00472 35.034 2.88524C35.4584 2.76596 35.8996 2.70605 36.3571 2.70605C36.6824 2.70605 36.9926 2.74043 37.2874 2.80898C37.5823 2.87759 37.8582 2.97426 38.1149 3.09866C38.3716 3.22319 38.6093 3.37306 38.8279 3.54846C39.0465 3.72372 39.2449 3.9156 39.4229 4.12391L39.5295 3.30831C39.555 3.21675 39.5791 3.14189 39.6021 3.08344C39.6249 3.02507 39.6529 2.97799 39.6859 2.94241C39.7189 2.90691 39.7609 2.88278 39.8118 2.87001C39.8625 2.85731 39.9262 2.85087 40.0025 2.85087H40.765C40.8463 2.85087 40.9278 2.85851 41.009 2.87388C41.0903 2.8891 41.1642 2.91324 41.2303 2.94629C41.2962 2.97934 41.3484 3.02507 41.3866 3.08345C41.4247 3.14189 41.4438 3.2143 41.4438 3.30066V12.105Z" fill="var(--fill-0, #141414)"/>
<path id="Vector_4" d="M50.932 7.72952C50.932 7.32814 50.8608 6.94437 50.7185 6.57849C50.5761 6.21261 50.3777 5.8912 50.1237 5.61415C49.8694 5.3373 49.5694 5.11623 49.2237 4.95107C48.878 4.78598 48.5043 4.70328 48.1027 4.70328C47.6959 4.70328 47.3134 4.78598 46.9549 4.95107C46.5965 5.11623 46.2839 5.3373 46.0169 5.61415C45.75 5.8912 45.5403 6.21261 45.3878 6.57849C45.2352 6.94437 45.1591 7.32814 45.1591 7.72952V7.78285C45.164 8.1843 45.2455 8.56168 45.4031 8.91482C45.5607 9.26814 45.7716 9.57802 46.0361 9.84478C46.3003 10.1117 46.6092 10.3226 46.9626 10.4775C47.316 10.6327 47.6959 10.71 48.1028 10.71C48.5043 10.71 48.878 10.6313 49.2238 10.4737C49.5694 10.3162 49.8694 10.1029 50.1237 9.83342C50.3778 9.56408 50.5762 9.24779 50.7186 8.88437C50.8608 8.52114 50.9321 8.13617 50.9321 7.72954M45.1972 12.0974C45.1514 12.2498 45.1019 12.3641 45.0484 12.4404C44.9951 12.5167 44.8921 12.5548 44.7396 12.5548H43.588C43.2677 12.5548 43.1076 12.4023 43.1076 12.0974V0.457442C43.1076 0.325269 43.1533 0.216092 43.2449 0.129589C43.3364 0.0432931 43.4405 0 43.5576 0H44.8159C44.9684 0 45.0879 0.0445532 45.1743 0.133434C45.2608 0.222395 45.304 0.330376 45.304 0.457426V3.95629C45.67 3.58023 46.0907 3.28038 46.5661 3.05677C47.0413 2.83325 47.5867 2.72134 48.2018 2.72134C48.8882 2.72134 49.5276 2.85232 50.1198 3.11395C50.7121 3.37577 51.2282 3.73275 51.668 4.18494C52.1077 4.63732 52.4522 5.1671 52.7014 5.77433C52.9504 6.38162 53.075 7.03341 53.075 7.72954C53.075 8.42067 52.9504 9.06993 52.7014 9.67716C52.4521 10.2845 52.1077 10.8142 51.668 11.2665C51.2282 11.7188 50.7121 12.0758 50.1198 12.3375C49.5276 12.5992 48.8882 12.73 48.2018 12.73C47.9019 12.73 47.6146 12.697 47.3401 12.631C47.0656 12.5648 46.8037 12.4747 46.5546 12.3604C46.3055 12.2461 46.0729 12.1102 45.8569 11.9526C45.6407 11.7951 45.4437 11.6275 45.2657 11.4495L45.1972 12.0974L45.1972 12.0974Z" fill="var(--fill-0, #141414)"/>
<path id="Vector_5" d="M54.3886 0.45738C54.3886 0.325207 54.4241 0.216029 54.4954 0.129589C54.5666 0.0432133 54.6758 0 54.8234 0H56.1579C56.2595 0 56.355 0.0432133 56.4439 0.129589C56.5328 0.216029 56.5774 0.325191 56.5774 0.45738V12.0973C56.5774 12.2498 56.5354 12.3641 56.4516 12.4404C56.3676 12.5167 56.2545 12.5547 56.1122 12.5547H54.8387C54.6758 12.5547 54.5603 12.5167 54.4916 12.4404C54.423 12.3641 54.3887 12.2498 54.3887 12.0973V0.45738H54.3886Z" fill="var(--fill-0, #141414)"/>
<path id="Vector_6" d="M62.7931 4.61176C62.493 4.61176 62.2007 4.66648 61.916 4.77565C61.6312 4.88509 61.3707 5.03363 61.1343 5.22165C60.8979 5.40968 60.692 5.63076 60.5166 5.8848C60.3411 6.13898 60.2127 6.41338 60.1315 6.70806H65.5308C65.4495 6.39816 65.326 6.11479 65.1609 5.85807C64.9956 5.60163 64.796 5.38056 64.5623 5.19499C64.3284 5.00949 64.0615 4.86601 63.7615 4.76428C63.4615 4.66262 63.1388 4.61176 62.7931 4.61176ZM66.1791 11.4875C65.7316 11.8686 65.2422 12.1686 64.7111 12.3871C64.1797 12.6055 63.5963 12.7148 62.9608 12.7148C62.2744 12.7148 61.6235 12.5852 61.0085 12.326C60.3933 12.0669 59.8543 11.7112 59.3918 11.2589C58.9291 10.8066 58.5617 10.2768 58.2898 9.66949C58.0178 9.06232 57.8818 8.40795 57.8818 7.7067C57.8818 7.25445 57.9377 6.81743 58.0495 6.39556C58.1613 5.97383 58.3203 5.57862 58.5262 5.21022C58.7321 4.84174 58.9825 4.50384 59.2774 4.19633C59.5722 3.88889 59.9014 3.62599 60.265 3.40738C60.6284 3.18896 61.0224 3.01996 61.447 2.90041C61.8715 2.78113 62.3203 2.72129 62.7931 2.72129C63.1794 2.72129 63.5607 2.76836 63.9369 2.86238C64.3132 2.95647 64.6703 3.08983 65.0084 3.26257C65.3465 3.43537 65.663 3.64495 65.958 3.89147C66.2527 4.13795 66.512 4.41619 66.7358 4.72609C67.0408 5.15301 67.2645 5.61297 67.4069 6.10586C67.5492 6.5988 67.6204 7.14512 67.6204 7.74471C67.6204 7.89225 67.614 8.01539 67.6013 8.11445C67.5886 8.2136 67.5568 8.29364 67.506 8.35454C67.4551 8.41558 67.3788 8.46007 67.2772 8.48799C67.1755 8.51598 67.0332 8.52994 66.8502 8.52994H60.0858C60.1518 8.89582 60.2776 9.21975 60.4632 9.50173C60.6487 9.78384 60.8687 10.0227 61.1229 10.2184C61.3771 10.414 61.6542 10.5614 61.9542 10.6604C62.254 10.7596 62.554 10.8091 62.854 10.8091C63.0828 10.8091 63.3027 10.7863 63.5137 10.7405C63.7247 10.6947 63.9217 10.6338 64.1047 10.5576C64.2877 10.4813 64.4567 10.3937 64.6119 10.2945C64.7669 10.1954 64.9029 10.0925 65.02 9.98582C65.02 9.98076 65.0224 9.97824 65.0275 9.97824C65.0885 9.92233 65.1469 9.87791 65.2029 9.84479C65.2588 9.81181 65.3173 9.7952 65.3783 9.7952C65.4241 9.7952 65.4761 9.81057 65.5347 9.84101C65.5931 9.87146 65.6503 9.92233 65.7062 9.99347C65.8436 10.1612 65.9605 10.301 66.057 10.4127C66.1536 10.5245 66.2324 10.6186 66.2934 10.6947C66.3545 10.771 66.3989 10.8371 66.4269 10.893C66.4548 10.949 66.4688 11.0047 66.4688 11.0606C66.4688 11.2029 66.3722 11.3453 66.1792 11.4875" fill="var(--fill-0, #141414)"/>
<path id="Vector_7" d="M4.78472 2.7061C4.42593 2.75177 3.65545 2.90017 2.91099 3.48413C2.36827 3.90979 2.06189 4.39243 1.90266 4.69316C1.53681 4.3649 1.17097 4.03658 0.805121 3.70833C0.718452 3.9415 0.625253 4.18026 0.525078 4.4238C0.406208 4.71256 0.285152 4.98967 0.163218 5.25496C0.821213 5.84285 1.47927 6.43066 2.13732 7.01849C2.19657 6.75692 2.39766 6.02801 3.07002 5.43573C3.22954 5.29525 3.80444 4.81986 4.63405 4.72107C4.69711 4.71355 4.74946 4.70969 4.78472 4.70757V2.7061Z" fill="var(--fill-0, #141414)" fill-opacity="0.5"/>
<path id="Vector_8" d="M9.83395 6.37263C9.71954 5.94584 9.55684 5.54691 9.34591 5.17584C9.13491 4.80497 8.88188 4.46821 8.58708 4.16582C8.29221 3.86356 7.96295 3.6044 7.59949 3.38831C7.23604 3.17236 6.84451 3.00467 6.42505 2.8852C6.06998 2.78427 5.78123 2.7267 5.41731 2.71133V4.73662C5.67474 4.7678 5.87011 4.84114 6.1238 4.95862C6.46955 5.11865 6.76822 5.33474 7.01985 5.60654C7.27162 5.87842 7.46985 6.19615 7.61485 6.55939C7.75972 6.92281 7.83209 7.30532 7.83209 7.7067C7.83209 8.11334 7.75972 8.49937 7.61485 8.8654C7.46985 9.23121 7.27162 9.55134 7.01985 9.82582C6.76822 10.1002 6.46955 10.3188 6.1238 10.4813C5.77804 10.644 5.40442 10.7253 5.00284 10.7253C4.59602 10.7253 4.21353 10.644 3.85501 10.4813C3.49655 10.3188 3.18399 10.1002 2.91699 9.82582C2.65012 9.55136 2.43913 9.23121 2.28407 8.8654C2.12889 8.49937 2.05152 8.11335 2.05152 7.7067V7.67538L0 5.90414V15.0626C0 15.1999 0.0520755 15.3078 0.156385 15.3866C0.260488 15.4654 0.366042 15.5047 0.47281 15.5047H1.73883C1.89129 15.5047 2.00571 15.4615 2.082 15.3751C2.15829 15.2887 2.19642 15.1845 2.19642 15.0626V11.3504C2.37429 11.5384 2.56359 11.715 2.76453 11.8801C2.96528 12.0453 3.18399 12.1901 3.42039 12.3146C3.65679 12.4392 3.91349 12.537 4.19059 12.6081C4.46764 12.6791 4.77136 12.7148 5.10196 12.7148C5.5596 12.7148 5.99921 12.655 6.42127 12.5357C6.84325 12.4164 7.23605 12.2486 7.59949 12.0325C7.96295 11.8167 8.29221 11.5561 8.58708 11.2512C8.88189 10.9463 9.13493 10.6084 9.34591 10.2374C9.55684 9.86656 9.71954 9.46757 9.83395 9.04065C9.94837 8.61374 10.0056 8.16912 10.0056 7.7067C10.0056 7.24428 9.94837 6.79954 9.83395 6.37263Z" fill="var(--fill-0, #141414)"/>
</g>
</svg>
