<svg preserveAspectRatio="none" width="100%" height="100%" overflow="visible" style="display: block;" viewBox="0 0 97.81 18" fill="none" xmlns="http://www.w3.org/2000/svg">
<g id="Group">
<path id="Vector" d="M5.814 11.627C2.609 11.627 0 9.019 0 5.814C0 2.609 2.609 0 5.814 0C9.019 0 11.627 2.609 11.627 5.814C11.627 9.019 9.019 11.627 5.814 11.627ZM5.814 2.251C3.848 2.251 2.251 3.848 2.251 5.814C2.251 7.779 3.848 9.377 5.814 9.377C7.779 9.377 9.377 7.779 9.377 5.814C9.377 3.848 7.779 2.251 5.814 2.251Z" fill="var(--fill-0, black)"/>
<path id="Vector_2" d="M9.377 11.625C9.377 13.591 7.779 15.188 5.814 15.188C3.848 15.188 2.251 13.591 2.251 11.625H0C0 14.83 2.609 17.439 5.814 17.439C9.019 17.439 11.627 14.83 11.627 11.625H9.377ZM20.863 15.379C19.81 15.379 18.9 15.194 18.134 14.823C17.368 14.452 16.764 13.937 16.321 13.279C15.89 12.609 15.639 11.831 15.567 10.945L17.937 10.801C18.008 11.352 18.164 11.819 18.403 12.202C18.655 12.585 18.984 12.878 19.391 13.081C19.81 13.273 20.312 13.369 20.899 13.369C21.401 13.369 21.826 13.309 22.173 13.189C22.532 13.057 22.801 12.872 22.981 12.633C23.172 12.381 23.268 12.076 23.268 11.717C23.268 11.394 23.19 11.107 23.035 10.855C22.879 10.592 22.58 10.359 22.137 10.155C21.694 9.94 21.036 9.73 20.163 9.527C19.109 9.288 18.266 9.018 17.631 8.719C16.997 8.408 16.536 8.025 16.249 7.57C15.962 7.103 15.818 6.523 15.818 5.829C15.818 5.087 16.004 4.435 16.375 3.872C16.746 3.298 17.272 2.855 17.955 2.544C18.637 2.221 19.456 2.059 20.414 2.059C21.431 2.059 22.293 2.244 22.999 2.615C23.705 2.975 24.262 3.471 24.668 4.105C25.075 4.74 25.327 5.47 25.422 6.296L23.071 6.403C23.011 5.937 22.867 5.53 22.64 5.183C22.424 4.836 22.125 4.566 21.742 4.375C21.371 4.171 20.917 4.07 20.378 4.07C19.708 4.07 19.175 4.225 18.78 4.536C18.397 4.836 18.206 5.236 18.206 5.739C18.206 6.086 18.284 6.373 18.439 6.601C18.607 6.828 18.9 7.026 19.319 7.193C19.738 7.349 20.324 7.516 21.078 7.696C22.215 7.935 23.119 8.24 23.789 8.611C24.459 8.982 24.938 9.413 25.225 9.904C25.512 10.395 25.656 10.957 25.656 11.591C25.656 12.369 25.458 13.045 25.063 13.62C24.668 14.182 24.112 14.619 23.394 14.93C22.676 15.23 21.832 15.379 20.863 15.379ZM31.08 15.307C30.122 15.307 29.291 15.104 28.584 14.697C27.878 14.278 27.334 13.692 26.951 12.938C26.568 12.184 26.376 11.304 26.376 10.299C26.376 9.294 26.568 8.42 26.951 7.678C27.334 6.924 27.872 6.337 28.566 5.919C29.273 5.5 30.092 5.29 31.026 5.29C31.935 5.29 32.731 5.494 33.413 5.901C34.108 6.308 34.64 6.894 35.011 7.66C35.382 8.426 35.568 9.347 35.568 10.424V10.945H28.764C28.812 11.783 29.039 12.417 29.446 12.848C29.865 13.267 30.415 13.476 31.098 13.476C31.612 13.476 32.037 13.363 32.372 13.135C32.719 12.896 32.959 12.567 33.09 12.148L35.442 12.291C35.179 13.225 34.658 13.961 33.88 14.499C33.114 15.038 32.181 15.307 31.08 15.307ZM28.764 9.401H33.198C33.15 8.623 32.929 8.049 32.534 7.678C32.139 7.295 31.636 7.103 31.026 7.103C30.415 7.103 29.907 7.301 29.5 7.696C29.105 8.091 28.86 8.659 28.764 9.401ZM40.992 15.307C40.034 15.307 39.202 15.104 38.496 14.697C37.79 14.278 37.246 13.692 36.863 12.938C36.48 12.184 36.288 11.304 36.288 10.299C36.288 9.294 36.48 8.42 36.863 7.678C37.246 6.924 37.784 6.337 38.478 5.919C39.184 5.5 40.004 5.29 40.938 5.29C41.847 5.29 42.643 5.494 43.325 5.901C44.019 6.308 44.552 6.894 44.923 7.66C45.294 8.426 45.479 9.347 45.479 10.424V10.945H38.676C38.724 11.783 38.951 12.417 39.358 12.848C39.777 13.267 40.327 13.476 41.009 13.476C41.524 13.476 41.949 13.363 42.284 13.135C42.631 12.896 42.87 12.567 43.002 12.148L45.354 12.291C45.091 13.225 44.57 13.961 43.792 14.499C43.026 15.038 42.093 15.307 40.992 15.307ZM38.676 9.401H43.11C43.062 8.623 42.841 8.049 42.446 7.678C42.051 7.295 41.548 7.103 40.938 7.103C40.327 7.103 39.819 7.301 39.412 7.696C39.017 8.091 38.772 8.659 38.676 9.401ZM46.2 15.092V2.346H50.437C52.471 2.346 54.033 2.903 55.122 4.016C56.223 5.117 56.774 6.69 56.774 8.737C56.774 10.772 56.235 12.339 55.158 13.44C54.081 14.541 52.543 15.092 50.544 15.092H46.2ZM48.534 13.063H50.437C51.765 13.063 52.752 12.704 53.399 11.986C54.045 11.268 54.368 10.185 54.368 8.737C54.368 7.265 54.045 6.17 53.399 5.452C52.752 4.734 51.765 4.375 50.437 4.375H48.534V13.063ZM62.197 15.307C61.24 15.307 60.408 15.104 59.702 14.697C58.996 14.278 58.452 13.692 58.069 12.938C57.686 12.184 57.494 11.304 57.494 10.299C57.494 9.294 57.686 8.42 58.069 7.678C58.452 6.924 58.99 6.337 59.684 5.919C60.39 5.5 61.21 5.29 62.144 5.29C63.053 5.29 63.849 5.494 64.531 5.901C65.225 6.308 65.758 6.894 66.129 7.66C66.5 8.426 66.685 9.347 66.685 10.424V10.945H59.882C59.93 11.783 60.157 12.417 60.564 12.848C60.983 13.267 61.533 13.476 62.215 13.476C62.73 13.476 63.155 13.363 63.49 13.135C63.837 12.896 64.076 12.567 64.208 12.148L66.56 12.291C66.296 13.225 65.776 13.961 64.998 14.499C64.232 15.038 63.299 15.307 62.197 15.307ZM59.882 9.401H64.316C64.268 8.623 64.047 8.049 63.652 7.678C63.257 7.295 62.754 7.103 62.144 7.103C61.533 7.103 61.025 7.301 60.618 7.696C60.223 8.091 59.977 8.659 59.882 9.401ZM71.858 15.307C70.913 15.307 70.117 15.17 69.47 14.894C68.836 14.619 68.346 14.236 67.998 13.746C67.651 13.255 67.454 12.698 67.406 12.076L69.758 11.968C69.841 12.471 70.051 12.86 70.386 13.135C70.721 13.41 71.218 13.548 71.876 13.548C72.415 13.548 72.833 13.464 73.133 13.297C73.444 13.117 73.599 12.842 73.599 12.471C73.599 12.256 73.545 12.076 73.438 11.932C73.33 11.789 73.127 11.663 72.827 11.555C72.528 11.448 72.085 11.34 71.499 11.232C70.518 11.065 69.746 10.861 69.183 10.622C68.621 10.371 68.22 10.059 67.98 9.688C67.753 9.317 67.639 8.857 67.639 8.306C67.639 7.409 67.98 6.684 68.663 6.134C69.357 5.572 70.368 5.29 71.696 5.29C72.558 5.29 73.282 5.434 73.869 5.721C74.455 5.996 74.91 6.379 75.233 6.87C75.568 7.349 75.777 7.899 75.861 8.522L73.545 8.629C73.486 8.306 73.378 8.025 73.222 7.786C73.067 7.546 72.857 7.367 72.594 7.247C72.331 7.115 72.02 7.05 71.661 7.05C71.122 7.05 70.715 7.157 70.44 7.373C70.165 7.588 70.027 7.875 70.027 8.234C70.027 8.486 70.087 8.695 70.206 8.863C70.338 9.03 70.548 9.168 70.835 9.275C71.122 9.371 71.505 9.461 71.984 9.545C72.989 9.7 73.779 9.904 74.353 10.155C74.94 10.395 75.353 10.706 75.592 11.089C75.843 11.46 75.969 11.908 75.969 12.435C75.969 13.045 75.795 13.566 75.448 13.997C75.113 14.428 74.635 14.757 74.012 14.984C73.402 15.2 72.684 15.307 71.858 15.307ZM76.69 15.092V5.506H78.987V15.092H76.69ZM84.358 18C83.519 18 82.802 17.886 82.203 17.659C81.605 17.432 81.12 17.108 80.749 16.69C80.39 16.283 80.139 15.81 79.995 15.271L82.365 15.11C82.484 15.469 82.688 15.75 82.975 15.954C83.274 16.157 83.735 16.259 84.358 16.259C85.063 16.259 85.608 16.097 85.991 15.774C86.374 15.463 86.565 14.972 86.565 14.302V13.081C86.338 13.548 85.973 13.925 85.47 14.212C84.968 14.487 84.405 14.625 83.783 14.625C82.993 14.625 82.287 14.434 81.665 14.051C81.054 13.656 80.576 13.111 80.229 12.417C79.881 11.711 79.708 10.897 79.708 9.976C79.708 9.054 79.875 8.246 80.211 7.552C80.558 6.846 81.037 6.296 81.647 5.901C82.257 5.494 82.957 5.29 83.747 5.29C84.442 5.29 85.04 5.446 85.542 5.757C86.045 6.068 86.41 6.481 86.637 6.996V5.506H88.881V14.248C88.881 15.062 88.69 15.75 88.307 16.313C87.936 16.875 87.409 17.294 86.727 17.569C86.056 17.856 85.267 18 84.358 18ZM84.321 12.83C85.004 12.83 85.549 12.579 85.956 12.076C86.362 11.561 86.572 10.855 86.584 9.958C86.595 9.359 86.505 8.851 86.314 8.432C86.135 8.001 85.872 7.672 85.524 7.444C85.189 7.205 84.788 7.085 84.321 7.085C83.616 7.085 83.065 7.349 82.67 7.875C82.287 8.39 82.095 9.084 82.095 9.958C82.095 10.831 82.293 11.531 82.688 12.058C83.095 12.573 83.639 12.83 84.321 12.83ZM89.535 15.092V5.506H91.617L91.707 8.198L91.438 8.091C91.533 7.421 91.731 6.882 92.031 6.475C92.329 6.068 92.694 5.769 93.126 5.577C93.556 5.386 94.029 5.29 94.543 5.29C95.25 5.29 95.842 5.446 96.321 5.757C96.812 6.068 97.182 6.499 97.434 7.05C97.685 7.588 97.81 8.216 97.81 8.934V15.092H95.513V9.671C95.513 9.132 95.459 8.677 95.352 8.306C95.244 7.935 95.064 7.654 94.813 7.462C94.573 7.259 94.25 7.157 93.843 7.157C93.233 7.157 92.742 7.373 92.371 7.804C92.012 8.234 91.833 8.857 91.833 9.671V15.092H89.535ZM76.691 2.15H78.988V4.241H76.691V2.15Z" fill="var(--fill-0, black)"/>
</g>
</svg>
