<svg preserveAspectRatio="none" width="100%" height="100%" overflow="visible" style="display: block;" viewBox="0 0 74 20" fill="none" xmlns="http://www.w3.org/2000/svg">
<g id="svg-78146729_4591">
<path id="Vector" d="M1.20832 2.86682C1.20832 1.91413 1.92607 1.14181 2.81146 1.14181H16.4382C17.3236 1.14181 18.0413 1.91413 18.0413 2.86682V16.6668C18.0413 17.6195 17.3236 18.3918 16.4382 18.3918H2.81146C1.92607 18.3918 1.20832 17.6195 1.20832 16.6668V2.86682Z" fill="var(--fill-0, black)"/>
<path id="Vector_2" d="M6.2582 8.05185V6.31682H12.9914V8.05185H10.5619V14.3668H8.68771V8.05185H6.2582Z" fill="var(--fill-0, #4D4D4D)"/>
<path id="Vector_3" d="M6.2582 7.47685V5.74182H12.9914V7.47685H10.5619V13.7918H8.68771V7.47685H6.2582Z" fill="var(--fill-0, white)"/>
<path id="Vector_4" fill-rule="evenodd" clip-rule="evenodd" d="M63.4356 11.0867C63.4356 12.7625 64.3869 13.9127 65.9153 13.9127C66.7169 13.9127 67.401 13.5512 67.7217 12.9268L67.8072 13.7702H69.0043V5.621H67.711V9.04938C67.3797 8.51267 66.7277 8.19502 65.9901 8.19502C64.3976 8.19502 63.4356 9.39992 63.4356 11.0867ZM67.7003 11.0428C67.7003 12.0177 67.1125 12.6858 66.2039 12.6858C65.2954 12.6858 64.7396 12.0068 64.7396 11.0428C64.7396 10.079 65.2954 9.38892 66.2039 9.38892C67.1125 9.38892 67.7003 10.068 67.7003 11.0428Z" fill="var(--fill-0, black)"/>
<path id="Vector_5" d="M54.6506 6.4644C54.6506 6.91348 55.0033 7.27494 55.4523 7.27494C55.8798 7.27494 56.2325 6.91348 56.2325 6.4644C56.2325 6.01532 55.8798 5.66482 55.4523 5.66482C55.0033 5.66482 54.6506 6.01532 54.6506 6.4644Z" fill="var(--fill-0, black)"/>
<path id="Vector_6" d="M23.6523 5.76339V7.05587H25.9396V13.7702H27.3077V7.05587H29.595V5.76339H23.6523Z" fill="var(--fill-0, black)"/>
<path id="Vector_7" fill-rule="evenodd" clip-rule="evenodd" d="M29.2408 11.0648C29.2408 12.7407 30.3418 13.9127 31.9129 13.9127C33.2918 13.9127 34.2537 13.2007 34.4782 12.0178H33.2704C33.1208 12.5325 32.6504 12.8173 31.9343 12.8173C31.0685 12.8173 30.5769 12.3353 30.4807 11.3824L34.4568 11.3715V10.9662C34.4568 9.27942 33.4521 8.19502 31.8702 8.19502C30.3204 8.19502 29.2408 9.367 29.2408 11.0648ZM30.5128 10.5281C30.641 9.7175 31.1113 9.29033 31.8809 9.29033C32.6612 9.29033 33.1635 9.78325 33.1635 10.5281H30.5128Z" fill="var(--fill-0, black)"/>
<path id="Vector_8" d="M38.8139 8.33742V9.57517H38.3329C37.3923 9.57517 36.8044 10.0899 36.8044 11.1414V13.7702H35.5005V8.37027H36.7296L36.8044 9.15891C37.0289 8.6222 37.5313 8.26074 38.2367 8.26074C38.4184 8.26074 38.6001 8.28265 38.8139 8.33742Z" fill="var(--fill-0, black)"/>
<path id="Vector_9" d="M54.8003 8.35932V13.7702H56.1042V8.35932H54.8003Z" fill="var(--fill-0, black)"/>
<path id="Vector_10" fill-rule="evenodd" clip-rule="evenodd" d="M39.2526 12.2258C39.2526 13.2445 39.9367 13.9127 41.0589 13.9127C41.882 13.9127 42.5981 13.5293 42.8226 12.9707L42.9188 13.7703H44.0624V10.4843C44.0624 8.98366 43.186 8.19502 41.7644 8.19502C40.3321 8.19502 39.3916 8.96175 39.3916 10.1338H40.5031C40.5031 9.56417 40.9307 9.23558 41.7003 9.23558C42.363 9.23558 42.7905 9.53133 42.7905 10.2652V10.3857L41.2086 10.5062C39.958 10.6048 39.2526 11.2291 39.2526 12.2258ZM42.8012 11.5796C42.8012 12.412 42.2882 12.9049 41.4865 12.9049C40.8987 12.9049 40.5779 12.6639 40.5779 12.1711C40.5779 11.7329 40.8879 11.4591 41.7003 11.3824L42.8012 11.2948V11.5796Z" fill="var(--fill-0, black)"/>
<path id="Vector_11" d="M46.6474 13.7703H45.3435V8.35932H46.5406L46.6474 8.99461C46.9146 8.54553 47.449 8.19502 48.208 8.19502C49.0096 8.19502 49.5654 8.60029 49.8433 9.22467C50.1105 8.60029 50.7304 8.19502 51.5321 8.19502C52.8147 8.19502 53.5201 8.98366 53.5201 10.2323V13.7703H52.2268V10.5828C52.2268 9.80517 51.8207 9.39992 51.2008 9.39992C50.5701 9.39992 50.0891 9.81608 50.0891 10.7033V13.7703H48.7851V10.5719C48.7851 9.81608 48.3897 9.41083 47.7698 9.41083C47.1498 9.41083 46.6474 9.82708 46.6474 10.7033V13.7703Z" fill="var(--fill-0, black)"/>
<path id="Vector_12" d="M58.7555 13.7703H57.4515V8.35932H58.6593L58.7662 9.06033C59.0975 8.51267 59.7388 8.19502 60.4549 8.19502C61.7803 8.19502 62.4644 9.03843 62.4644 10.4404V13.7703H61.1604V10.7581C61.1604 9.849 60.7221 9.41083 60.0488 9.41083C59.2472 9.41083 58.7555 9.98042 58.7555 10.8567V13.7703Z" fill="var(--fill-0, black)"/>
<path id="Vector_13" d="M70.4269 12.6119H70.801V13.5709H71V12.6119H71.3741V12.4209H70.4269V12.6119Z" fill="var(--fill-0, black)"/>
<path id="Vector_14" d="M71.5093 13.5709H71.6963V12.8395L72.0067 13.5709H72.1739L72.4843 12.8273V13.5709H72.6713V12.4209H72.4843L72.0903 13.3677L71.6963 12.4209H71.5093V13.5709Z" fill="var(--fill-0, black)"/>
</g>
</svg>
