<svg preserveAspectRatio="none" width="100%" height="100%" overflow="visible" style="display: block;" viewBox="0 0 53.9977 13.8594" fill="none" xmlns="http://www.w3.org/2000/svg">
<g id="svg-552990903_5239" clip-path="url(#clip0_0_67)">
<path id="Vector" d="M45.1751 12.223L46.7083 13.7918C46.7844 13.8697 46.9079 13.8697 46.984 13.7918L48.5171 12.223C48.5933 12.1451 48.5933 12.0188 48.5171 11.9408L46.984 10.3721C46.9079 10.2941 46.7844 10.2941 46.7083 10.3721L45.1751 11.9408C45.099 12.0188 45.099 12.1451 45.1751 12.223Z" fill="var(--fill-0, black)"/>
<path id="Vector_2" d="M47.6526 9.68783L49.1857 11.2566C49.2618 11.3345 49.3853 11.3345 49.4615 11.2566L50.9945 9.68783C51.0707 9.60989 51.0707 9.48356 50.9946 9.40563L49.4615 7.8369C49.3853 7.75897 49.2618 7.75897 49.1857 7.8369L47.6526 9.40563C47.5764 9.48356 47.5764 9.60989 47.6526 9.68783Z" fill="var(--fill-0, black)"/>
<path id="Vector_3" d="M50.1303 7.15268L51.6633 8.7214C51.7395 8.79933 51.863 8.79933 51.9391 8.7214L53.4723 7.15268C53.5482 7.07474 53.5482 6.94841 53.4723 6.87048L51.9391 5.30173C51.863 5.22381 51.7395 5.22381 51.6633 5.30173L50.1303 6.87048C50.0541 6.94841 50.0541 7.07474 50.1303 7.15268Z" fill="var(--fill-0, black)"/>
<path id="Vector_4" d="M45.2216 7.20017L46.7547 8.76895C46.8309 8.84688 46.9543 8.84688 47.0304 8.76895L48.5636 7.20017C48.6397 7.12224 48.6397 6.99591 48.5636 6.91803L47.0304 5.34925C46.9543 5.27133 46.8309 5.27133 46.7547 5.34925L45.2216 6.91803C45.1455 6.99591 45.1455 7.12224 45.2216 7.20017Z" fill="var(--fill-0, black)"/>
<path id="Vector_5" d="M47.6992 4.66502L49.2324 6.2338C49.3085 6.31168 49.4319 6.31168 49.5081 6.2338L51.0412 4.66502C51.1173 4.58709 51.1173 4.46076 51.0412 4.38284L49.5081 2.81408C49.4319 2.73616 49.3085 2.73616 49.2324 2.81408L47.6992 4.38284C47.6231 4.46076 47.6231 4.58709 47.6992 4.66502Z" fill="var(--fill-0, black)"/>
<path id="Vector_6" d="M45.2682 2.17737L46.8013 3.74613C46.8775 3.82404 47.0009 3.82404 47.0771 3.74613L48.6102 2.17737C48.6863 2.09944 48.6863 1.97311 48.6102 1.89519L47.0771 0.326431C47.0009 0.248511 46.8775 0.248511 46.8013 0.326432L45.2682 1.89519C45.1921 1.97311 45.1921 2.09944 45.2682 2.17737Z" fill="var(--fill-0, black)"/>
<path id="Vector_7" d="M4.86302 3.56828V11.9462H3.13366V3.56828H0.0126614V2.01995H7.98393V3.56828H4.86302Z" fill="var(--fill-0, black)"/>
<path id="Vector_8" d="M5.80721 8.32412C5.80721 6.19505 7.21222 4.54988 9.18477 4.54988C11.2385 4.54988 12.3328 6.13971 12.3328 8.13056V8.6835H7.36091C7.48254 9.92776 8.21203 10.6881 9.25235 10.6881C10.0495 10.6881 10.6845 10.2734 10.9007 9.52685L12.2923 10.066C11.7923 11.3378 10.671 12.0982 9.25235 12.0982C7.22586 12.0982 5.80721 10.5637 5.80721 8.32412ZM7.44196 7.4393H10.6981C10.6845 6.63743 10.1982 5.94616 9.1713 5.94616C8.33361 5.94616 7.68518 6.45768 7.44196 7.4393Z" fill="var(--fill-0, black)"/>
<path id="Vector_9" d="M13.6106 9.56826C14.0294 10.2734 14.8401 10.7434 15.6643 10.7434C16.3533 10.7434 16.9882 10.4946 16.9882 9.84481C16.9882 9.22269 16.3938 9.1536 15.2724 8.91852C14.151 8.6835 12.8675 8.3932 12.8675 6.84478C12.8675 5.51759 14.0025 4.54988 15.6372 4.54988C16.8801 4.54988 17.988 5.1167 18.5015 5.9186L17.4071 6.92778C17.0018 6.27794 16.3262 5.90469 15.5427 5.90469C14.8806 5.90469 14.4483 6.20885 14.4483 6.69276C14.4483 7.21808 14.9616 7.31488 15.8534 7.50844C17.0558 7.77107 18.569 8.03376 18.569 9.69268C18.569 11.1582 17.2585 12.0982 15.6507 12.0982C14.3402 12.0982 13.0297 11.5591 12.3947 10.5637L13.6106 9.56826Z" fill="var(--fill-0, black)"/>
<path id="Vector_10" d="M19.623 6.09824H18.6367V4.68812H19.623V2.55905H21.2173V4.68812H22.7035V6.09824H21.2173V9.85867C21.2173 10.5084 21.5821 10.5775 22.163 10.5775C22.4333 10.5775 22.5819 10.5637 22.825 10.5361V11.9324C22.5278 11.9877 22.1226 12.0291 21.7037 12.0291C20.3526 12.0291 19.623 11.6006 19.623 10.1213V6.09824Z" fill="var(--fill-0, black)"/>
<path id="Vector_11" d="M25.224 11.9462H23.4947V2.01995H27.3722C29.5339 2.01995 30.885 3.05677 30.885 5.06141C30.885 6.62367 30.0473 7.6191 28.6287 7.96462L31.1281 11.9462H29.1557L26.7912 8.1029H25.224V11.9462ZM27.2776 6.58215C28.5206 6.58215 29.1826 6.02911 29.1826 5.06141C29.1826 4.0799 28.5206 3.54068 27.2776 3.54068H25.224V6.58215H27.2776Z" fill="var(--fill-0, black)"/>
<path id="Vector_12" d="M31.0915 9.92775C31.0915 8.54523 32.1048 7.93701 33.4694 7.64666L35.4285 7.23183V7.10742C35.4285 6.41616 35.0772 5.98769 34.2125 5.98769C33.4424 5.98769 33.037 6.34707 32.8479 7.05225L31.3212 6.69276C31.6725 5.48997 32.7128 4.54988 34.28 4.54988C35.9824 4.54988 37.0091 5.37937 37.0091 7.05225V10.1766C37.0091 10.5914 37.1848 10.7158 37.6306 10.6605V11.9462C36.4552 12.0844 35.8337 11.8494 35.5905 11.255C35.1447 11.7665 34.4016 12.0706 33.4829 12.0706C32.1318 12.0706 31.0915 11.2273 31.0915 9.92775ZM35.4285 8.50386L33.9017 8.83563C33.2127 8.98766 32.6993 9.20888 32.6993 9.85862C32.6993 10.4255 33.1046 10.7434 33.7261 10.7434C34.5907 10.7434 35.4285 10.2734 35.4285 9.38862V8.50386Z" fill="var(--fill-0, black)"/>
<path id="Vector_13" d="M39.8343 11.9462H38.213V4.68811H39.8343V11.9462Z" fill="var(--fill-0, black)"/>
<path id="Vector_14" d="M42.5266 11.9462H40.9054V2.01995H42.5266V11.9462Z" fill="var(--fill-0, black)"/>
<path id="Vector_15" d="M39.8614 2.01995H38.186V3.72042H39.8614V2.01995Z" fill="var(--fill-0, black)"/>
</g>
<defs>
<clipPath id="clip0_0_67">
<rect width="53.9977" height="13.8594" fill="white"/>
</clipPath>
</defs>
</svg>
