<svg preserveAspectRatio="none" width="100%" height="100%" overflow="visible" style="display: block;" viewBox="0 0 12 9.334" fill="none" xmlns="http://www.w3.org/2000/svg">
<g id="image" clip-path="url(#clip0_0_36)">
<path id="Vector" opacity="0.6" d="M12 4.667C12 4.888 11.912 5.101 11.756 5.257L7.923 9.089C7.597 9.415 7.07 9.415 6.744 9.09C6.418 8.764 6.418 8.237 6.744 7.911L9.154 5.501H0.834C0.373 5.501 0 5.128 0 4.668C0 4.207 0.373 3.834 0.834 3.834H9.154L6.744 1.423C6.418 1.098 6.418 0.57 6.744 0.244C7.069 -0.081 7.597 -0.081 7.923 0.244L11.756 4.078C11.912 4.234 11.999 4.446 12 4.667Z" fill="var(--fill-0, black)"/>
</g>
<defs>
<clipPath id="clip0_0_36">
<rect width="12" height="9.334" fill="white"/>
</clipPath>
</defs>
</svg>
