<svg preserveAspectRatio="none" width="100%" height="100%" overflow="visible" style="display: block;" viewBox="0 0 16 16" fill="none" xmlns="http://www.w3.org/2000/svg">
<g id="image">
<path id="Vector" d="M5.167 0.333C5.443 0.333 5.667 0.557 5.667 0.833V1.667H10.333V0.833C10.333 0.557 10.557 0.333 10.833 0.333C11.11 0.333 11.333 0.557 11.333 0.833V1.667H12.167C13.179 1.667 14 2.488 14 3.5V11.167C14 12.179 13.179 13 12.167 13H3.833C2.821 13 2 12.179 2 11.167V3.5C2 2.488 2.821 1.667 3.833 1.667H4.667V0.833C4.667 0.557 4.891 0.333 5.167 0.333ZM5.167 5.333H10.833C11.11 5.333 11.333 5.11 11.333 4.833C11.333 4.557 11.11 4.333 10.833 4.333H5.167C4.891 4.333 4.667 4.557 4.667 4.833C4.667 5.11 4.891 5.333 5.167 5.333Z" fill="var(--fill-0, #EA7E2A)"/>
</g>
</svg>
