<svg preserveAspectRatio="none" width="100%" height="100%" overflow="visible" style="display: block;" viewBox="0 0 17 13.834" fill="none" xmlns="http://www.w3.org/2000/svg">
<g id="Group">
<path id="Vector" d="M0.121 1.5C0.069 1.689 0.041 1.884 0.025 2.087C0 2.406 0 2.796 0 3.264V10.404C0 10.872 0 11.262 0.025 11.581C0.052 11.913 0.109 12.225 0.255 12.52C0.479 12.973 0.836 13.341 1.276 13.572C1.563 13.722 1.866 13.781 2.189 13.808C2.499 13.834 2.878 13.834 3.331 13.834H13.668C14.122 13.834 14.501 13.834 14.811 13.808C15.134 13.781 15.437 13.722 15.724 13.572C16.164 13.341 16.521 12.973 16.745 12.52C16.891 12.225 16.948 11.913 16.975 11.581C17 11.262 17 10.872 17 10.404V3.264C17 2.796 17 2.406 16.975 2.087C16.959 1.884 16.931 1.689 16.879 1.5L9.98 7.31C9.119 8.035 7.881 8.035 7.02 7.31L0.121 1.5Z" fill="var(--fill-0, black)"/>
<path id="Vector_2" d="M16.34 0.567C16.204 0.449 16.054 0.346 15.894 0.262C15.607 0.112 15.304 0.053 14.981 0.026C14.671 0 14.292 0 13.838 0H3.502C3.048 0 2.669 0 2.359 0.026C2.036 0.053 1.733 0.112 1.446 0.262C1.286 0.346 1.136 0.449 1 0.567L7.997 6.46C8.389 6.79 8.951 6.79 9.343 6.46L16.34 0.567Z" fill="var(--fill-0, black)"/>
</g>
</svg>
